<svg xmlns="http://www.w3.org/2000/svg" viewBox="0 0 2721.83 1532.59"><defs><style>.cls-1{fill:#ebf3fa;}.cls-2{fill:#dfedfb;}.cls-3{fill:#cde3fd;}.cls-4{fill:#233862;}.cls-5{fill:#213f7a;}.cls-6{fill:#f99746;}.cls-7{fill:#ffb27d;}.cls-8{fill:#e2915a;}.cls-9{fill:#ed7d2b;}.cls-10{fill:#c8dbf4;}.cls-11{fill:#d4e4f8;}.cls-12{fill:#163560;}.cls-13{fill:#2a4e96;}.cls-14{fill:#f9ddbf;}.cls-15{fill:#f4a269;}.cls-16{fill:#2e3552;}.cls-17{fill:#fff;}.cls-18{fill:#ffb93e;}.cls-19{fill:#ffeac5;}.cls-20{fill:#f2ccaa;}.cls-21{fill:#e8945b;}.cls-22{fill:#b5453c;}.cls-23{fill:#95c0f4;}.cls-24{fill:#b0d4ff;}.cls-25{fill:#2b478b;}.cls-26{fill:#ed975d;}.cls-27{fill:#9ec3f6;}</style></defs><title>Ativo 1</title><g id="Camada_2" data-name="Camada 2"><g id="Слой_1" data-name="Слой 1"><path class="cls-1" d="M128.17,1532.59S-71.18,1308.92,27.35,876.92c62-271.73,325.07-439.1,671.31-393.49,320.55,42.23,315.16-127.24,595.61-289,599.89-345.94,1467.65-199,1260,579.12-100.5,376.56,316.13,382.59,109.06,759Z"/><path class="cls-2" d="M1868.94,115.29l-28-1.27-.66,0a6.69,6.69,0,0,0-6.89,5.64l-3.59,23.13a6.57,6.57,0,0,1-6,5.54,116.76,116.76,0,0,0-44.36,12.79,7.08,7.08,0,0,1-1.78.61,6.78,6.78,0,0,1-6.31-2.15l-12.85-14.71a6.81,6.81,0,0,0-6.75-2.05,7.2,7.2,0,0,0-2.13,1l-23.45,16.41a6.82,6.82,0,0,0-2,9l13,22.48a6.6,6.6,0,0,1-.29,7.07c-2.07,3.06-4,6.2-5.82,9.48a117,117,0,0,0-8.32,18.9v0a6.72,6.72,0,0,1-6.14,4.62l-26.36,1.06-1.33.07a6.57,6.57,0,0,0-6.33,6.28l-1.32,28.62a6.88,6.88,0,0,0,5.8,7.09l25.74,4a6.64,6.64,0,0,1,5.57,5.49,117.07,117.07,0,0,0,11.69,34.18,6.72,6.72,0,0,1-1.55,8.12L1711.19,342a6.82,6.82,0,0,0-1.08,9.06l16.46,23.55a6.53,6.53,0,0,0,8.62,1.9l26.43-15.3a6.85,6.85,0,0,1,7.2.21q4,2.66,8.26,5a118.46,118.46,0,0,0,16.42,7.47,6.48,6.48,0,0,1,4.35,5.92l1.24,31.69a6.71,6.71,0,0,0,6.39,6.43l28.72,1.33a6.75,6.75,0,0,0,6.68-4.7,5.38,5.38,0,0,0,.21-.94l4.46-28.56a6.64,6.64,0,0,1,4.91-5.48,3.84,3.84,0,0,1,.69-.15,19,19,0,0,0,2.06-.38,116.32,116.32,0,0,0,24-6.84,6.46,6.46,0,0,1,7.41,1.81l16.14,18.37a6.79,6.79,0,0,0,9,1.07l5.22-3.64L1933.17,377a6.71,6.71,0,0,0,2-8.87L1922.29,346a6.49,6.49,0,0,1,.63-7.42,117.42,117.42,0,0,0,12.29-18.15,115.68,115.68,0,0,0,6.88-14.92l5.54-.22,22.69-.92a6.48,6.48,0,0,0,6-4.58,5.6,5.6,0,0,0,.29-1.69l1.38-28.81a6.76,6.76,0,0,0-5.67-6.91l-17.59-2.71a6.69,6.69,0,0,1-5.61-5.92,117.53,117.53,0,0,0-9.19-35.88,6.47,6.47,0,0,1,1.68-7.59l22-19.29a6.46,6.46,0,0,0,1-8.53L1948,158.7a6.54,6.54,0,0,0-8.67-1.93l-27.5,15.93a6.65,6.65,0,0,1-7.48-.52,114.74,114.74,0,0,0-15-9.81Q1885,160,1880.55,158a6.72,6.72,0,0,1-4-5.81l-1.2-30.38A6.82,6.82,0,0,0,1868.94,115.29ZM1782,228a72.08,72.08,0,0,1,17.44-17.26,41.07,41.07,0,0,1,5.29-3.15c8.49-4.22,20-7,28.25-6.61,63.14,3.26,85.64,78.22,35.85,115.74-.82.61-1.65,1.21-2.5,1.8-7.94,5.56-22.47,9.72-32.13,9.33a78.15,78.15,0,0,1-14.42-1.94C1774.5,315.11,1756.58,264.06,1782,228Z"/><path class="cls-3" d="M2248.67,314.58,2206,307.26l-1-.17a10.31,10.31,0,0,0-11.63,7.32l-9.94,34.74a9.42,9.42,0,0,1-.62,1.64,10.13,10.13,0,0,1-9.58,5.71,180.5,180.5,0,0,0-70.42,11.08,10.36,10.36,0,0,1-12.1-3.9l-16.86-25a10.48,10.48,0,0,0-9.95-4.43,11.27,11.27,0,0,0-3.45,1.1L2021.38,356a10.54,10.54,0,0,0-4.76,13.45l15.68,36.93a10.18,10.18,0,0,1-1.8,10.78c-3.75,4.3-7.34,8.72-10.73,13.41a179.28,179.28,0,0,0-16.36,27.37l0,0a10.4,10.4,0,0,1-10.29,5.89l-40.6-3.43-2-.15a10.17,10.17,0,0,0-10.91,8.42l-7.5,43.59a10.64,10.64,0,0,0,7.52,12l38.67,11.07a10.3,10.3,0,0,1,7.49,9.48,180.86,180.86,0,0,0,11.34,54.61,10.34,10.34,0,0,1-3.93,12.14l-29.59,20.05a10.53,10.53,0,0,0-3.4,13.67l20.71,39.25a10.06,10.06,0,0,0,12.83,4.55l43.43-18.37a10.57,10.57,0,0,1,11,1.7q5.63,4.83,11.71,9.25a182.9,182.9,0,0,0,23.71,14.59,10,10,0,0,1,5.54,9.9l-4.17,48.79a10.34,10.34,0,0,0,8.55,11.07l43.75,7.55a10.39,10.39,0,0,0,11.12-5.92,6.84,6.84,0,0,0,.51-1.4l12.31-42.89a10.23,10.23,0,0,1,8.56-7.46,6.59,6.59,0,0,1,1.09-.1,32.11,32.11,0,0,0,3.23-.18,179.92,179.92,0,0,0,38.05-5.89,10,10,0,0,1,11,4.19l21.19,31.24a10.5,10.5,0,0,0,13.63,3.37l8.7-4.58,30.3-16.05a10.36,10.36,0,0,0,4.71-13.22l-15.44-36.38a10,10,0,0,1,2.39-11.24,182.11,182.11,0,0,0,22.31-25.46,178.14,178.14,0,0,0,13.4-21.54l8.52.74,34.94,2.93a10,10,0,0,0,10.07-5.86,9,9,0,0,0,.77-2.54l7.64-43.88a10.44,10.44,0,0,0-7.36-11.66l-26.44-7.52a10.34,10.34,0,0,1-7.45-10.15,181.4,181.4,0,0,0-7.21-56.73,10,10,0,0,1,4-11.31l37.41-25.33a10,10,0,0,0,3.19-12.87l-21-39.64a10.08,10.08,0,0,0-12.91-4.62l-45.19,19.13a10.25,10.25,0,0,1-11.35-2.23,174.43,174.43,0,0,0-21.13-17.9q-6.15-4.47-12.55-8.35a10.38,10.38,0,0,1-4.95-9.66l4-46.78A10.51,10.51,0,0,0,2248.67,314.58Zm-154.82,156a111.26,111.26,0,0,1,30-23.09,63.23,63.23,0,0,1,8.7-3.81c13.83-4.85,32-6.93,44.55-4.72,96.11,17.1,116.21,136.25,32.74,184.19-1.38.77-2.76,1.54-4.18,2.28-13.23,7-36.28,10.59-51,8.13a120.8,120.8,0,0,1-21.71-5.74C2065.68,602.6,2048,520.94,2093.85,470.54Z"/><path class="cls-2" d="M831.39,624.57c-2.41-59.5,47.46-85.93,98.45-85.93s106.48,13.21,111.29,92.33c3.09,50.89-24,82.21-102.17,82.21-26.35,0-46.83-4.16-62.51-11.57l-39.05,34.7,19.19-48C839.59,672.54,832.42,650.24,831.39,624.57Z"/><path class="cls-4" d="M346.26,1521.13s-2.12-16.49-7-26.29-36.11-3.57-36.11-3.57-6.24,5.35-7.57,30.31Z"/><path class="cls-4" d="M452.55,1520.91c-7.33-4.48-3.16-37.86-3.16-37.86s34.16-27.32,38.86-6.4,32.45,30.32,48.25,32.88c10.91,1.77,14.28,7.81,15.33,11.38Z"/><path class="cls-5" d="M381.8,1278.12a156.8,156.8,0,0,1,2.5,18.46c3.18,61.94,52.14,203.56,60.9,206.86,13.55,5.12,34.89-5.75,46.06-9.31,4.62-1.48,7.74-6.14,6.72-10.88-24.25-111.47-33.16-272-36.41-367-1.63-47.87-9.85-80.94-9.85-80.94s-119.42-31.86-120.13,8.45C331,1079.41,371.15,1219.29,381.8,1278.12Z"/><path class="cls-4" d="M381.8,1278.12l79.77-161.89c-1.63-47.87-9.85-80.94-9.85-80.94s-119.42-31.86-120.13,8.45C331,1079.41,371.15,1219.29,381.8,1278.12Z"/><path class="cls-5" d="M408.37,1043.88l-63.14,457.56s-27.72,6.68-49.28,1.34c0,0-18.49-243.36-16.95-302.19s-13.26-157.42,3.38-168.29S408.37,1043.88,408.37,1043.88Z"/><path class="cls-6" d="M278,926.4l-7.87,109.86a8.77,8.77,0,0,0,6.32,9c8.81,2.55,19,4.33,38.54,8.39a374.14,374.14,0,0,0,73.54,7.39c48.36.3,66.67-16.36,66.67-16.36,2.09,0-1.1-10.09-4-58.21-1-16.3-1.91-37-2.58-63.08-.61-23.49-1-51.41-1.06-84.53-.05-39.84-61.72-82.7-62.86-82.7v0c0,5.74-9,16.32-23,17.24-16.53,1.08-36.81-7.15-36.81-16.66,0-.1-29.87,47.79-40.48,98.82-1.35,6.46-2.39,13.29-3.22,20.47,0,.11,0,.22,0,.33-.16,1.31-.3,2.63-.43,4,0,.23-.05.47-.07.7q-.2,1.81-.36,3.66c0,.35-.06.71-.09,1-.1,1.13-.2,2.25-.29,3.39,0,.1,0,.2,0,.31-.07.84-.13,1.69-.2,2.54,0,.59-.09,1.21-.13,1.81l-.21,3-.09,1.51q-.09,1.42-.18,2.88c0,.42,0,.85-.07,1.28-.08,1.39-.16,2.8-.23,4.21,0,.12,0,.23,0,.34-.07,1.36-.13,2.73-.2,4.1,0,.34,0,.68,0,1q-.11,1.93-.18,3.9c0,.2,0,.39,0,.58-.14,3.19-.26,6.44-.38,9.73a2.18,2.18,0,0,0,0,.25Z"/><path class="cls-6" d="M384.68,756.22s57.34-.49,71.14,18.86,44.06,123.47,28.27,158.12-45.33-14.33-61.73-35.55S384.68,756.22,384.68,756.22Z"/><path class="cls-7" d="M385.27,747.46l0,5.93s1.61,18.54-21.21,21.25-39.74-3.53-39.13-17.83c2.06-11.08,3.94-22.39,4.09-31.55a64.54,64.54,0,0,0-.81-11.1l44.23-.89,13,2.13Z"/><path class="cls-8" d="M385.44,715.4l-.17,32.06A37.33,37.33,0,0,1,369.33,751c-20.33,0-33.47-14.9-40.34-25.72a64.54,64.54,0,0,0-.81-11.1l44.23-.89Z"/><path class="cls-7" d="M324.79,707c5.13,27.62,40.77,26.71,56.17,25,4.34-.49,7.06-1,7.06-1,4.89-1.31,7.62-9,8.88-19.09,2.52-19.95-.66-49.24-4-56.73-5.07-11.28-14.63-23.47-50.52-14.67S318.2,671.65,324.79,707Z"/><path class="cls-9" d="M443.32,833.81s22.18,49,21.53,63.65a76.76,76.76,0,0,0-21.53,2.77C426,905.4,443.32,833.81,443.32,833.81Z"/><path class="cls-4" d="M403.88,628.87a118.93,118.93,0,0,1-34.43-9.32c-15.12-6.58-34.2.66-40.39,3.93a9.08,9.08,0,0,1,1.51-3.73s-2.78,2-3.19,4.73c-.29.21-.42.36-.34.4s-3.16-.57-5.18.34c0,0,1.42-.2,1.92.71a1.09,1.09,0,0,0,.23.25c-23.59,11.4-25.77,48.68-18.18,57.31,9.14,10.38,20.09,33.75,20.09,33.75s4-5.52,2.33-14.65,6.23-9.14,16.19-13.29,1.66-15.78,10.38-22.83,40.69-2.91,40.27-8.31C407,653.84,403.88,630.08,403.88,628.87Z"/><path class="cls-9" d="M317.56,925.55c9.36,37.6,110.61,57,133.62,61-1-16.3-1.91-37-2.58-63.08Z"/><path class="cls-7" d="M339.79,937.77c-1,0-22.51-3.21-26.37-5.14s-21.51-27-9.95-33.44,42.58,19.29,42.58,19.29Z"/><path class="cls-6" d="M470.81,945.22s-83.31,4.52-139.23-7.45c0,0-1.41-16.15,16.16-23.33,0,0,87.15-18.47,108.08-13.32S470.81,945.22,470.81,945.22Z"/><path class="cls-6" d="M279.47,879.84c17.29,20.85,39.9,37.87,64.82,41.85h0a46.4,46.4,0,0,0,6.17-27.83,55.81,55.81,0,0,0-9.07-25.54,55.81,55.81,0,0,1-4.9-9.88c-13.61-34.72-11.59-101.63-11.59-101.63s-57.78,6.05-75.79,31.77C238.08,804.34,252.15,846.87,279.47,879.84Z"/><path class="cls-8" d="M381,732c4.34-.49,7.06-1,7.06-1,4.89-1.31,7.62-9,8.88-19.09-9.16,2.26-13.36,9.34-15.11,12.36C381,725.6,380.84,728.65,381,732Z"/><path class="cls-7" d="M404.24,747.64s20-32.93,4.44-34.37-21.76,9.07-24,12.93.59,21.26.59,21.26Z"/><path class="cls-6" d="M328.18,892.76a43.06,43.06,0,0,0,3.4,11.43,54.65,54.65,0,0,0,12.71,17.5h0c51.83-23.4,62.32-103.73,64.08-147.88.71-17.74,0-29.63,0-29.63-23.38-7.75-30,5.71-30,5.71s-27.6,65.65-41.92,108.55C331,874.86,327.48,888,328.18,892.76Z"/><path class="cls-9" d="M279.47,879.84c17.29,20.85,39.9,37.87,64.82,41.85h0c51.83-23.4,62.32-103.73,64.08-147.88,0,0-24.53,89-57.91,120.05-6,5.63-12.36,9.36-18.88,10.33,0,0-42.1-11.9-50.92-23.1A4.69,4.69,0,0,0,279.47,879.84Z"/><path class="cls-10" d="M1934.24,1166.49s32.93-38.63,1.86-63c0,0-22.68-13.65-41.14-12.49,0,0,26.29,43.81,17.83,48.19s-25.77-50.92-25.77-50.92-51.54-4.85-68.1,3.17c0,0,44.15,35.93,34.88,38.1s-57-33.09-57-33.09-47.94,8.3-45.3,37.55,19.19,38.24,26.45,37.44,49.7-17.13,50.65-11.18-24.59,25.47-42.49,26.43c0,0,33.91,37.19,56.36,26.37s24.31-27.89,38.3-34.33,26-6.45,20.19.09-31.1,13-39.08,27.15-15.13,23.77,8.11,20.2,61-20.68,62.6-40.16Z"/><path class="cls-10" d="M1775.12,1134.7s130.25-5.38,159.12,31.79c0,0,6.42,19,26,36.34l3.08,8.3s-22.64-23.73-30.72-25.15C1932.64,1186,1945.14,1139.79,1775.12,1134.7Z"/><path class="cls-10" d="M1960.28,1202.83s28,20.6,30.06,57.54l-5.07.47s-9-38.18-25.22-53.08S1960.28,1202.83,1960.28,1202.83Z"/><path class="cls-10" d="M2109,1064.62s-52.64-29.29-28.23-69.3c0,0,19.56-24.58,40.56-31,0,0-11,59.6.17,61S2129,958,2129,958s55.29-26.78,77-24.73c0,0-34.18,58.25-23,56.82s49.59-60.4,49.59-60.4,56.73-10.67,65.94,22.94-5.47,50.47-13.88,52.6-62.36,1.57-60.94,8.57,37.89,18.12,58.2,11.76c0,0-22.27,55.42-51.71,52.7s-38.6-20.92-56.83-22.27-31.52,3.59-22.4,8.47,40,1.5,54.7,14,26.69,20.14-.63,25.82-76.38,2.32-86.24-18.68Z"/><path class="cls-10" d="M2272.65,963.25s-147,48.06-163.7,101.37c0,0,.76,23.82-13.88,51.19l0,10.51s15.32-35.78,23.72-40.71C2118.82,1085.61,2085.75,1039.45,2272.65,963.25Z"/><path class="cls-10" d="M2095.07,1115.81s-22.6,34.53-9.54,76.44l5.83-1.58s-5.79-46.19,6-69.47S2095.07,1115.81,2095.07,1115.81Z"/><path class="cls-11" d="M2025.22,1024.26s69.17-39,36.7-91.55c0,0-26-32.26-53.69-40.5,0,0,15,78.47.22,80.36s-10.4-88.65-10.4-88.65-73.08-34.9-101.7-32c0,0,45.47,76.55,30.69,74.74s-65.81-79.26-65.81-79.26-74.86-13.65-86.75,30.72,7.58,66.49,18.67,69.23,82.22,1.62,80.4,10.87-49.82,24.15-76.63,15.91c0,0,29.76,72.89,68.55,69.09s50.73-27.85,74.74-29.76,41.58,4.5,29.59,11-52.65,2.26-72,18.81-35,26.75,1,34,100.7,2.49,113.56-25.26Z"/><path class="cls-11" d="M1808.7,891.84s194.16,62.27,216.52,132.42c0,0-.84,31.41,18.66,67.38l0,13.85s-20.45-47-31.55-53.49C2012.37,1052,2055.61,990.92,1808.7,891.84Z"/><path class="cls-11" d="M2043.88,1091.64s30,45.34,13.14,100.69l-7.7-2s7.3-60.93-8.44-91.52S2043.88,1091.64,2043.88,1091.64Z"/><path class="cls-6" d="M2476.86,1513.08l-568.81,1.41c-84.61-96.87-93.22-227.82,19.18-338.09,14.14-13.87,41.24-23.7,70.47-30.63,53.86-12.76,114.94-15.68,115.42-15.94.18-.07,32.29-26.08,51.61-49.46,60-72.62,111.08-66.36,111.08-66.36,61.17-11.88,113.34-15.35,152,6.2v0c35.82,20,60.06,61.47,69.1,137.68q2.58,21.61,3.5,47.06c2.19,61.85,14.36,116.87,21.58,163.46h0C2532.48,1435.93,2532.55,1485.74,2476.86,1513.08Z"/><path class="cls-9" d="M2397.48,1096.54c-37.12,20.2-41.25,86.79-99.35,104s-156.69,15.57-212.64,76.21c-54,58.51-113.44-90.43-87.79-132.3,53.86-12.77,114.94-15.69,115.42-16,.18-.06,32.29-26.08,51.61-49.46,60-72.62,111.08-66.35,111.08-66.35,61.17-11.88,113.34-15.35,152,6.19v0C2447.45,1040.29,2434.6,1076.34,2397.48,1096.54Z"/><path class="cls-4" d="M2169.66,1115.6s-186.25-2.45-211,13.42,25.57,268.1,25.57,268.1,48.18,1.4,52-11.35c0,0-9-118.23-1.46-138.68s2.77-48.74,2.77-48.74,94.25,14.11,124.15,7S2169.66,1115.6,2169.66,1115.6Z"/><path class="cls-7" d="M2212.75,985.23c0,.14-26.21,61.09-39,67.58s-59,59.63-68.94,58.71,11.6,8.06,11.6,8.06,80.83-37.26,85.53-39.59,29.46-43.06,32.86-63.73S2212.75,985.23,2212.75,985.23Z"/><path class="cls-7" d="M2042.09,1415.93c-6.21,12-7.61,34-9.46,41.47s-34.39,32.86-37.19,31.59c-7.12-3.21-.31-15.62,4-24.69.18-.36.35-.72.52-1.08,4.28-9.14.6-29.53,2.81-40.07s-8.45-38.89-8.45-38.89l18-22.71s12.63,24,21.67,28.42a21.76,21.76,0,0,1,4.41,2.81C2044.54,1397.82,2047.19,1406.08,2042.09,1415.93Z"/><path class="cls-7" d="M1978.88,1486.08c-12.46,5.14-27.74,21.07-34,25.58s-47.48,2.91-48.8.14c-3.5-7.32,10.93-12.54,20.09-16.76l.41-.19,0,0c9.07-4.56,19.21-22.07,27.58-28.58s18.62-35.17,18.62-35.17l28.39-5.75s-5.84,26.52-1.76,35.69a23.14,23.14,0,0,1,1,2.62C1993.05,1472.16,1990.18,1481.42,1978.88,1486.08Z"/><path class="cls-12" d="M2266.26,958.17c-3.79-4.38,56.1-22.43,68.87,26.72,0,0,110.23-29.31,42.47-78.42-23.46-17-25.81-35.14-29.21-51.74s-26.8-64.31-67.43-40.63c0,0-18.56.08-30.3,10.25C2224,847.49,2194.75,994.58,2266.26,958.17Z"/><path class="cls-13" d="M2247.47,1124.24s-193.14,19.63-210.11,39.34-83.71,276.06-83.71,276.06,19.71,11,37.63.72c0,0,51.1-87,73.71-114.25s31.08-111.59,34.81-112.45,124.76,16.89,166.44-15.1S2247.47,1124.24,2247.47,1124.24Z"/><path class="cls-14" d="M2355,949s-46.06-20.58-104.48-11.17c-11.94,1.92-22.69,5.85-31.23,19.91-12.07,19.86-17.71,30.52-17.71,30.52s1.16,9.21,17.63,16.54c-4.49,16.47,4.1,45.23-3.81,56.4s-57,38.83-59.43,54.22c-4.47,28.29,83.86,79.56,110.21,74.09C2342,1173.76,2393.53,970.66,2355,949Z"/><path class="cls-12" d="M2329,890.72s9.08-17.87,10.29-32.53c.86-10.47-8-48.13-45.81-39a52.45,52.45,0,0,0-20.84,10.2c-7.79,6.41-18.67,19.68-2.1,51.72l4.55,10.92Z"/><path class="cls-7" d="M2277.11,951c-3.83,4-2.32,17.45,15.58,16.45,11.75-.66,36.94-15.19,34.59-25.23-1.13-4.78-10.16-17.09-12.28-45.41l-2.13.6L2277,907.48s1.73,11.4,2.6,22.21C2280.33,938.76,2278.69,949.32,2277.11,951Z"/><path class="cls-15" d="M2277,907.48s1.73,11.4,2.6,22.21c20.35-2.18,29.67-21.63,33.28-32.29Z"/><path class="cls-7" d="M2276.22,924.06s47-11.8,39.14-40.92-7-50.26-37.3-43.95-33.12,19-32.88,29.32S2263.81,926.39,2276.22,924.06Z"/><path class="cls-12" d="M2256.59,844.2s15.75,30,45.49,33.27c17.4,1.9,22.17,13.36,22.17,13.36s-5.22-32.78-14-52.83C2310.29,838,2261.86,825.35,2256.59,844.2Z"/><path class="cls-12" d="M2262,848.17s-10.28,10.49-13.45,17.89c-4.7,11,4.46,34,8.24,39,0,0-21.84-37.06-14.54-53.11C2250,834.93,2262,848.17,2262,848.17Z"/><path class="cls-7" d="M2118.78,1118.5s-9.35,9.9-10.49,10.43c-6.18,2.89-14,1.21-17.77,2.15s-3.12-1.39-.34-3.3,9.64-1.16,6.84-1.86-17.91-3.51-23.61-2c-9,2.41-16.11-.42-16.67-1.34s20.56-11.25,26.6-10.9,23.4-.49,23.4-.49Z"/><path class="cls-7" d="M2370.92,967.25s5.62,137.69-10.57,157-114.59-2.13-114.59-2.13l-6.83-10.06s87.45-12.8,93.32-14.46c8.45-2.38,2.57-97.2,2.57-97.2Z"/><path class="cls-14" d="M2349.2,946.83c1.4,0,18.81,5.75,31.3,30.49,12.28,24.31,16.75,36.11,16.75,36.11s-54.47,42.2-76.13,26.66S2329.22,946.31,2349.2,946.83Z"/><path class="cls-7" d="M2245.76,1122.11s-7.84,7.94-10.82,12-23.82,11.4-24.29,9.23,9.32-8.78,10.21-11.25,11.57-14.85,18.07-16.26S2245.76,1122.11,2245.76,1122.11Z"/><path class="cls-7" d="M2238.93,1112.05s-32.13,7.43-37.58,9.66-17,18.59-12.43,21c2.9,1.55,15.58-5.14,22-6.54s24.66,1.77,33-14.71C2244.89,1119.65,2238.93,1112.05,2238.93,1112.05Z"/><path class="cls-16" d="M1978.88,1486.08c-12.46,5.14-27.74,21.07-34,25.58s-47.48,2.91-48.8.14c-3.5-7.32,10.93-12.54,20.09-16.76l.41-.19,0,0,1.29-.42s17.79,6.35,32.58,0c11.54-5,28.65-23.3,39.93-30.77C1993.05,1472.16,1990.18,1481.42,1978.88,1486.08Z"/><path class="cls-16" d="M2042.09,1415.93c-6.21,12-7.61,34-9.46,41.47s-34.39,32.86-37.19,31.59c-7.12-3.21-.31-15.62,4-24.69a20.1,20.1,0,0,0,9.94-3.69c8.13-5.42,21.93-25.88,23.17-37.95,1-9.84.37-23.94,5.83-29.88C2044.54,1397.82,2047.19,1406.08,2042.09,1415.93Z"/><polygon class="cls-6" points="2197.51 1146.91 2057.56 1146.91 2015.46 1042.22 2155.19 1042.22 2197.51 1146.91"/><polygon class="cls-9" points="2055.92 1142.83 2240.72 1142.83 2240.72 1146.91 2057.56 1146.91 2055.92 1142.83"/><path class="cls-17" d="M2092.88,1094.57c-1.05-3.68,1.08-6.67,4.76-6.67a9.54,9.54,0,0,1,8.57,6.67c1.06,3.68-1.07,6.66-4.75,6.66A9.56,9.56,0,0,1,2092.88,1094.57Z"/><path class="cls-6" d="M2357.71,1146.27s-18.31,17.14-94.87,19.57-176.41,87-177.35,110.88S2239.63,1337,2242,1333.55s98.37-85.81,98.37-85.81Z"/><path class="cls-9" d="M2522,1367.07c-41.22-74.22-135.36,28.14-158.76-6.48s33.08-78.6,84-116.47c49.9-37.1,49.69-85.6,49.66-87.56,1.72,14.41,2.89,30.06,3.5,47C2502.62,1265.46,2514.79,1320.48,2522,1367.07Z"/><path class="cls-18" d="M1856.6,330.66a331.31,331.31,0,0,1-75.45,213c-40.94,49.85-64,112-64,176.52v93a106.69,106.69,0,0,1-25.48,69.2,107.92,107.92,0,0,1-74.74,38.12c-2.41.16-4.66,0-7.11,0H1438.06c-2.31,0-4.81.15-7.09,0-55.85-3.58-100.23-50.61-100.23-107.32V720.35a277.3,277.3,0,0,0-63.69-176.29,331.37,331.37,0,0,1-75.77-211.39C1191.28,148.14,1341.09,0,1524,0A331.94,331.94,0,0,1,1856.6,330.66Z"/><path class="cls-9" d="M1616.92,920.51c-.87,6.66-15.35,117.85-15.49,118.91-2.39,18.34-23.37,32.36-48.45,32.36h-56.52c-24.85,0-45.79-13.79-48.42-32-2.74-19.18-13.26-92.69-17.07-119.24Z"/><path class="cls-6" d="M1594.47,920.51h-32c-51.54,14.9-102.67,29.63-126.36,36.32l1.24,8.69,0,.19,1.26,8.8c19.19-5.31,65.25-18.51,177.84-51.14l.37-2.86Z"/><path class="cls-6" d="M1444.73,1016.68h0l0,.2h0l1.27,8.84c22.19-6.24,68-19.37,163.29-47l1.26-9.59v-.08l1.24-9.53C1551.58,977,1478.66,998,1443.49,1008Z"/><path class="cls-6" d="M1466,1063.88l.31.18a54.49,54.49,0,0,0,13.16,5.47h0c26.14-7.49,65-18.7,122.67-35.41l1.24-9.61,0-.08,1.24-9.53c-51.55,14.92-110.69,32-147.22,42.46A43.72,43.72,0,0,0,1466,1063.88Z"/><polygon class="cls-19" points="1456.67 920.51 1384.78 496.16 1399.62 493.65 1471.92 920.51 1456.67 920.51"/><polygon class="cls-19" points="1584.55 920.51 1569.19 920.51 1646.17 500.26 1660.97 502.97 1584.55 920.51"/><path class="cls-19" d="M1563.65,572.11a29.32,29.32,0,0,1-6.5-.8c-4-.91-6.58-3.7-7.37-8.06-1.72-9.4,5.66-26.65,16-41.27-5.41-9.45-12.62-17.25-20.18-19.54-11.17-3.38-28.31,6.93-40.25,20.1a89.37,89.37,0,0,1,5.87,9.57c6.12,11.55,10.51,26.31,4.5,33.14-2.23,2.53-6.78,4.83-15.81,1.42-11.27-4.25-15.32-13.8-11.11-26.2a60.3,60.3,0,0,1,10.68-18.26c-9.24-12.06-21.6-21.22-33.77-19.69a37.41,37.41,0,0,0-16.72,6.31c7.79,14.49,9.58,32.88,4.18,42.74-3.68,6.72-10.11,8.85-18.11,6-5.74-2.05-8.74-10-7.63-20.14a46.52,46.52,0,0,1,15.61-29.77,38.58,38.58,0,0,0-8.65-9.71c-21-16.28-38.32,1.19-39.05,2l-3.27-3.17c.21-.22,21-21.13,45.11-2.38a42.84,42.84,0,0,1,9.48,10.54,41.8,41.8,0,0,1,18.48-6.89c13.65-1.72,27.27,7.91,37.38,20.72,13-14.11,31.49-24.54,44.39-20.64,8.16,2.46,15.85,10.33,21.73,20,5.48-7.1,11.58-13.29,17.51-17.22,9.5-6.3,15.7-4.85,19.21-2.54a34.63,34.63,0,0,1,9.23,9.23,50.93,50.93,0,0,1,8.83-5.69c11-5.48,21.12-5.08,28.47,1.13l-2.94,3.48c-7.92-6.71-18.12-3.21-23.5-.53a46.82,46.82,0,0,0-8.46,5.48c7.32,13.21,8.75,30.44,4.55,38.78-2.65,5.25-7.36,7.08-12.88,5-10-3.64-12.38-10.49-12.66-15.6-.55-9.77,6.22-20.89,15.07-29.08a29.8,29.8,0,0,0-8.21-8.44c-4.3-2.83-10.1-.19-14.2,2.53-5.92,3.91-12.12,10.36-17.6,17.69,6.83,13,10.37,28.14,7.78,37.9C1577.6,565,1574,572.11,1563.65,572.11Zm4.51-45.67c-9,13.15-15.36,28-13.91,36,.47,2.53,1.71,3.94,3.9,4.44,8.92,2,14.41-.58,16.3-7.74C1576.64,550.86,1573.77,537.93,1568.16,526.44Zm-65.85-.32a54,54,0,0,0-9.19,15.81c-3.45,10.18-.62,17.07,8.41,20.48,3.64,1.37,8.47,2.46,10.78-.17,3.58-4.06,1.48-15.57-5.1-28A86.23,86.23,0,0,0,1502.31,526.12Zm-56.93-14.43A41.86,41.86,0,0,0,1432,537.94c-.85,7.76,1.06,14.08,4.63,15.35,5.79,2.05,10,.75,12.58-3.91C1453.81,540.93,1452.13,524.67,1445.38,511.69Zm168,2.9c-7.91,7.6-13.28,17.34-12.86,24.85.3,5.44,3.55,9.33,9.67,11.58,3.36,1.23,5.66.33,7.25-2.83C1621,541.2,1619.5,526.24,1613.42,514.59Z"/><path class="cls-19" d="M1695.67,127.93c27.34,25.76,23.91,73.17-11.27,83.72-26.52,7.95-66.07-2.67-85.61-36.52s-10.53-61.67,13.45-75.52S1667.21,101.13,1695.67,127.93Z"/><path class="cls-12" d="M669.59,833.57c-3.2-6.16,69.72-28.35,70.87,32.47,0,0,136.59-3.35,71.37-79.49-22.58-26.35-20.25-48.15-19.58-68.43s-14.06-79.25-64.62-73.31c0,0-13.24-5.39-29.76,3.18C660.29,667.48,576.11,856,669.59,833.57Z"/><path class="cls-7" d="M892.9,901.58S901.79,888,909,887.78s20.44-4,19.38-1.33S919,889.37,918.24,891s12.21,4,15.93,4.25,12.47,0,12.2,1.86-15.78,9.55-26.73,8.49-24.49,3.18-24.49,3.18Z"/><path class="cls-14" d="M764.31,906a132.82,132.82,0,0,0,13.6,20.56c10.57,13.23,26.86,28.52,47.31,31.54,9.77,1.44,19.32-.66,28.11-4.56h0c24.84-11,43.52-36.39,43.52-36.39,4.38-11.94-2.79-20-2.79-20s-50.16,11.28-54.94,8.9-32.64-82.67-39.27-92.76-29.26-15.33-29.26-15.33Z"/><path class="cls-20" d="M777.91,926.52c10.57,13.23,26.86,28.52,47.31,31.54,9.77,1.44,19.32-.66,28.11-4.56-1,.12-25.79,3.19-35.67-14.5-10.09-18-21-46.71-36-37.16C775.21,906,775.5,916.21,777.91,926.52Z"/><path class="cls-4" d="M577.17,1447.41s-15.3,14-12.32,23.89,16.8,16.54,18.67,28.67,9.33,18.75,16.05,18.75h32s4.94-8.54-7-11.11-16.45-16.83-15.71-30.06-1.12-30.88-1.12-30.88l-25.38-5.88Z"/><path class="cls-4" d="M706.72,1453.34s-5.51,59.17,1.21,62.48l86-.18s0-9.92-13.81-12.13-38.08-10.29-42.19-28.3S706.72,1453.34,706.72,1453.34Z"/><path class="cls-7" d="M645.44,1028.81c17.69-39.68,28.52-51.07,26.46-63.39-1.54-9.17,4.68-170.93,4.68-170.93,2.1-.65,6.31-1.24,8.61-1.75A21.59,21.59,0,0,0,701,779c3-8.44,5.4-20.89,5.35-36.5l2.27.45,38.11,7.54s-.87,12-.89,23.3v.28a21.92,21.92,0,0,0,15.82,21.2c4.81,1.39,9,2.57,9,2.57s14,40,16.67,81-25.45,58.88.21,140.92C813.7,1103.58,635.66,1050.74,645.44,1028.81Z"/><path class="cls-21" d="M746.69,750.52s-.87,12-.89,23.3c-21.33-.6-32.61-20.06-37.22-30.84Z"/><path class="cls-7" d="M753.81,761.22s-50.46.84-50.49-30.6-6.58-52.5,25.64-54.36,38.49,10.13,41.06,20.62S766.94,760.2,753.81,761.22Z"/><path class="cls-12" d="M752,675.49s-13.82,36.88-35,42.33-30.4-.22-30.4-.22,16.27-12.92,19.64-35.48C706.16,682.12,741.52,657.94,752,675.49Z"/><path class="cls-12" d="M748.52,678.49s10.25,3.83,14.46,11.3a50.82,50.82,0,0,1,6.83,28.86s10.41-25.07-1.29-39.25C756.11,664.37,748.52,678.49,748.52,678.49Z"/><path class="cls-1" d="M742.83,741.72A12.7,12.7,0,0,0,753.28,746a9.28,9.28,0,0,0,7.78-5.13S750.75,738.36,742.83,741.72Z"/><path class="cls-14" d="M640.57,866a343,343,0,0,0,0,39.75c.85,14.37,15.39,33.62,17.45,38.38,5.17,12,11,13.89,11,13.89l45.15,11.07L730.06,973l50.06-15s22.81-63.65,13.65-99.48-23.15-60.71-23.15-60.71-40.85,40-94-3.39Z"/><path class="cls-20" d="M653.78,911.66c.86,14.37,2.18,27.75,4.24,32.51,5.17,12,11,13.89,11,13.89l45.15,11.07,19.61-5.77s-65.46-9.92-58.21-66.24Z"/><path class="cls-9" d="M776.94,967.72s24.79,77.17,26.38,103.45S755.93,1444.42,754,1456.52c-1.86,11.41-16,18.69-16,18.69s-6.52,3.84-15.82,1.22c-12.9-3.65-17-8-17-8s-19.3-247.46-7.36-335.86a1401.64,1401.64,0,0,0,12.09-164.84Z"/><path class="cls-6" d="M671.9,965.42s-37.82,50.74-41.35,85-5.53,154.8-13,188.24-35.11,97.79-35.11,202.09c0,0,2.87,6,11.73,9.16a94.52,94.52,0,0,0,10.31,2.85,16.2,16.2,0,0,0,18.13-8.6c18.66-37.57,78.09-158.73,81.14-183.88,2.16-17.8,20.92-135.6,61.86-204.72,9.82-16.6-6-82.59-6-82.59Z"/><path class="cls-17" d="M744,742.56s.87,3.71,10.08,3.14c0,0,7.74-.48,7.5-4.55C761.54,741.15,754,738.25,744,742.56Z"/><path class="cls-4" d="M780.9,955.81s-9.95,7.87-29.73,8.27c-23.61.47-82.14-6-82.14-6A48.28,48.28,0,0,0,666.54,973s71.47,18,112.89,2.64C779.43,975.63,784.77,965.58,780.9,955.81Z"/><path class="cls-17" d="M746.06,972.23c0-6.72,4.84-12.19,10.78-12.19s10.78,5.47,10.78,12.19-4.84,12.2-10.78,12.2S746.06,979,746.06,972.23Zm3.57,0c0,4.76,3.24,8.63,7.21,8.63s7.21-3.87,7.21-8.63-3.24-8.62-7.21-8.62S749.63,967.48,749.63,972.23Z"/><rect class="cls-22" x="623.79" y="885.07" width="97.1" height="132.91" transform="translate(554.54 2110.66) rotate(-138.95)"/><path class="cls-7" d="M685.55,970s26.83,3.14,26.75,9.51-6.69,19.45-10,20-21.84-17.69-21.84-17.69Z"/><path class="cls-14" d="M676.58,794.48S640.76,797,627,830.37s-39.79,89.43-39.79,98.86,14.55,38.49,92.71,55.2c0,0,8.09-8.5,7.6-15.23,0,0-48.79-41.9-48.66-46.8.25-9.27,8-21.5,50.83-64.35C701.37,846.4,676.58,794.48,676.58,794.48Z"/><path class="cls-23" d="M986.3,1516.89H986a3.55,3.55,0,0,1-3.56-3.64l5.4-234.32,15.93-1.86-13.58,236.19A3.86,3.86,0,0,1,986.3,1516.89Z"/><path class="cls-24" d="M1242.37,1516.89h.34a3.57,3.57,0,0,0,3.57-3.64l-5.41-234.32-15.92-1.86,13.58,236.19A3.84,3.84,0,0,0,1242.37,1516.89Z"/><path class="cls-24" d="M975.75,1264.4V1103.84a51.16,51.16,0,0,1,51.16-51.16h115.68a51.16,51.16,0,0,1,51.15,51.16v166.7Z"/><path class="cls-23" d="M975.75,1264.4h238.72a0,0,0,0,1,0,0v25.35a0,0,0,0,1,0,0H991.11a15.36,15.36,0,0,1-15.36-15.36v-10A0,0,0,0,1,975.75,1264.4Z"/><rect class="cls-24" x="1060.9" y="1264.4" width="191.69" height="25.35" rx="11.36"/><path class="cls-4" d="M1234.67,1224.39c-16.57,28.85-37.41,40-37.41,40h-86.72S1247.32,1202.39,1234.67,1224.39Z"/><path class="cls-7" d="M1168.07,1447.56a8,8,0,0,0-1.42,8.57,0,0,0,0,0,0,0c2.07,5.72,8.9,12.1,16.84,18.48q1.52,1.21,2.7,2.25l.6.54.47.42c7.4,6.83,4.62,8.39,17.91,22.23,15.17,15.78,25.61,16.06,28.57,14.63,2.52-1.23-2.59-9.6-8.24-19-.28-.45-.55-.91-.83-1.37l-2.25-3.78c-6.63-11.31-4.92-16.62-3.35-33.47,1.27-13.68,21.29-76.46,21.29-76.46l-29.05-5s-8.75,50-18.39,57.69c-5.16,4.1-10.93,4.16-15.89,7.2-.35.21-.69.43-1,.65A38.39,38.39,0,0,0,1168.07,1447.56Z"/><path class="cls-4" d="M1168.07,1447.56a8,8,0,0,0-1.42,8.57,0,0,0,0,0,0,0c2.53,5.71,9.19,12.07,16.86,18.42,1,.83,1.89,1.59,2.68,2.31l.6.54.47.42c7.4,6.83,4.62,8.39,17.91,22.23,15.17,15.78,25.61,16.06,28.57,14.63,2.52-1.23-2.59-9.6-8.24-19a64.53,64.53,0,0,1-27-19.91c-9.13-11.65-15.22-26.62-21.44-35.29-.35.21-.69.43-1,.65A38.39,38.39,0,0,0,1168.07,1447.56Z"/><path class="cls-7" d="M1402.36,1429.41c1.79,9,14.58,7.47,28.86,4s10.89.66,31.22-1.59,26.48-9.83,27.1-12.85c.56-2.68-9.49-3.63-20.26-4.87-1.35-.15-2.72-.32-4.08-.49-12.16-1.52-21.07-9.37-32.12-15.82-10.46-6.1-26.08-31-26.08-31l-27.88,2.21s14.63,22.22,20.29,31.88c3.33,5.68,3.15,13.19,2.74,19A35.46,35.46,0,0,0,1402.36,1429.41Z"/><path class="cls-4" d="M1431.22,1433.39c14.28-3.49,10.89.66,31.22-1.59s26.48-9.83,27.1-12.85c.56-2.68-9.49-3.63-20.26-4.87l-.1.21a57.35,57.35,0,0,1-29.11,9c-13.79.33-28.4-3.62-37.92-3.47a35.46,35.46,0,0,0,.21,9.54C1404.15,1438.38,1416.94,1436.88,1431.22,1433.39Z"/><path class="cls-4" d="M1295.53,1251.15l-26.07,70.13-34,91.56a54.85,54.85,0,0,1-18.07-1.65c-8.14-2.35-17.48-8.51-17.48-8.51s9.44-98.31,27.07-154.75c4.51-14.48,9.57-26.2,15.16-32.8C1269.44,1182.85,1295.53,1251.15,1295.53,1251.15Z"/><path class="cls-25" d="M1269,1139.79c-17.07-5.51-65.77,1.56-114.69,11.13L1144.1,1134l-105.65-8.25s-34.87,77.32-15.78,126.58c2.8,7.24,8.38,11.89,17.88,12h1.54l83.31,0c52.54,0,111.2-36.12,118.79-37.63,12.42-2.49,17.39,22.35,29.81,48.44s116.75,115.5,116.75,115.5,16,.16,22.66-2.32c7.12-2.67,9.72-6.14,9.72-6.14S1307.53,1152.21,1269,1139.79Z"/><path class="cls-22" d="M1140,826.38c-13.54-7.11-34.13-8.07-37.48-8.52-40-5.38-64.13,52.8-65.55,70.43-2.61,32.49-19.8,37.44-44,57.79-48.51,40.8-34.28,88.22-7.76,105.83,15.92,10.57,44,0,44,0,.4.28,76.73-42.67,114.35-63.38C1199.89,980.51,1174.44,844.49,1140,826.38Z"/><path class="cls-7" d="M1112,970.89c.16.11-18.52,6.49-31,1-11.75-5.2-20.65-24.53-20.48-24.54,5.35-.24,11.21-4.92,15.73-35.58l2.28.82,38.26,13.77s-2.77,12.28-4.56,24C1110.67,960.1,1109.86,969.51,1112,970.89Z"/><path class="cls-26" d="M1116.74,926.32s-2.77,12.28-4.56,24c-22-4-30.61-25.86-33.7-37.74Z"/><path class="cls-7" d="M1122.44,938.51s-52.35-7-47.47-39.57,1.4-55.35,35-52.24,38.26,16.5,39.27,27.75S1136.19,939.5,1122.44,938.51Z"/><path class="cls-22" d="M1147.36,856.62s-33.51,28.88-56.31,31.21-31.43-5-31.43-5a89.1,89.1,0,0,0,21.53-29.16,16,16,0,0,1,13.21-9.45C1110.64,842.82,1141.5,842.18,1147.36,856.62Z"/><path class="cls-22" d="M1126.41,854s11.21,10.84,14.74,18.88c3.41,7.76,4.43,26.32,1.72,33.69,0,0,17.47-34,7.58-50.47C1140,838.63,1126.41,854,1126.41,854Z"/><path class="cls-14" d="M1156,1048c-1.58,106-.43,83.83-12,93.89-2.79,2.42-10.64,3.86-21,4.54-32.49,2.16-89.62-3.2-91.79-9.2-7.5-20.78-2.2-27.24-8.46-59-.65-3.38-1.46-7-2.4-11-5.22-21.85-10.29-29.29,8.21-64.39,16.77-31.8,34.2-57.61,35.77-56.68,44.26,26.28,47.83,4.19,47.83,4.19S1156.81,996.32,1156,1048Z"/><path class="cls-25" d="M1269.46,1321.28l-34,91.56a54.85,54.85,0,0,1-18.07-1.65c-8.14-2.35-17.48-8.51-17.48-8.51s9.44-98.31,27.07-154.75Z"/><path class="cls-14" d="M1112.18,950.29s45.54,7.72,50.89,27.33,36.82,134.88,36.82,134.88-23.16,4.16-33.85-6.54-37.22-99.23-37.22-99.23Z"/><path class="cls-20" d="M1123,1146.45c-32.49,2.16-89.62-3.2-91.79-9.2-7.5-20.78-2.2-27.24-8.46-59l15.68-44.13s-2.6,49.14,11.9,62.07,59.34,24.95,66.39,35.76C1120.14,1137.08,1122.37,1142.28,1123,1146.45Z"/><path class="cls-7" d="M1085.79,1125.78s32.06-7.14,37.23-4.29,17.82,13.2,19.4,16.81-11.52-2.74-15.78-3.88c-2.76-.74-10,1.78-13.61,3-15.13,5-24.41,2.45-24.41,2.45Z"/><path class="cls-14" d="M1064.32,946.08s-43,2.65-57.95,23.44c-21,29.26-62.59,154-38.74,170.58,26.86,18.72,122.24,4.9,122.24,4.9s3.17-14.84-1.25-22-76.18-18.77-79.49-22.08,41.4-64.59,41.4-74.52S1064.32,946.08,1064.32,946.08Z"/><path class="cls-7" d="M1124.58,1130.41s6.71,8.67,8.91,9.7a6.68,6.68,0,0,0,3.63.78l-4.53-8.15Z"/><path class="cls-7" d="M1123,1121.49l19.53,9.48a3.47,3.47,0,0,1-3.23,1.25c-2.41-.11-8.47-2.33-8.47-2.33Z"/><polygon class="cls-6" points="1133.49 1153.38 1287.99 1153.38 1334.46 1037.82 1180.21 1037.82 1133.49 1153.38"/><polygon class="cls-9" points="1289.8 1148.88 1085.79 1148.88 1085.79 1153.38 1287.99 1153.38 1289.8 1148.88"/><path class="cls-17" d="M1249,1095.6c1.16-4.06-1.19-7.36-5.25-7.36a10.54,10.54,0,0,0-9.46,7.36c-1.17,4.06,1.18,7.36,5.24,7.36A10.56,10.56,0,0,0,1249,1095.6Z"/><path class="cls-4" d="M1623,1520.11h.45a5,5,0,0,0,4.72-5.32L1621,1172.91,1600,1170.2l18,344.62A5.33,5.33,0,0,0,1623,1520.11Z"/><path class="cls-4" d="M1090.91,1520.11h-.45a5,5,0,0,1-4.71-5.32l7.15-341.88,21.06-2.71-18,344.62A5.34,5.34,0,0,1,1090.91,1520.11Z"/><rect class="cls-4" x="1055.72" y="1153.38" width="610.39" height="24.46" rx="8.52"/><polygon class="cls-27" points="2085.87 212.8 2201.7 231.13 2125.47 177.44 2121.3 194.22 2092.99 198.9 2085.87 212.8"/><polygon class="cls-17" points="2201.7 231.13 2105.86 179.85 2011.26 173.64 2201.7 231.13"/><polygon class="cls-17" points="2125.47 177.44 2201.7 231.13 2143.32 148.16 2125.47 177.44"/><polygon class="cls-27" points="974.98 326.62 824.17 369.97 916.6 286.17 924.89 307.76 963.25 309.33 974.98 326.62"/><polygon class="cls-1" points="824.17 369.97 943.03 286.15 1067.64 262.38 824.17 369.97"/><polygon class="cls-1" points="916.6 286.17 824.17 369.97 888.09 250.21 916.6 286.17"/></g></g></svg>